<?xml version="1.0" encoding="UTF-8" standalone="no"?>
<svg
   fill="#000000"
   viewBox="0 0 50 50"
   width="30px"
   height="30px"
   version="1.1"
   id="svg19"
   sodipodi:docname="insta2.svg"
   inkscape:version="1.2.1 (9c6d41e410, 2022-07-14)"
   xmlns:inkscape="http://www.inkscape.org/namespaces/inkscape"
   xmlns:sodipodi="http://sodipodi.sourceforge.net/DTD/sodipodi-0.dtd"
   xmlns="http://www.w3.org/2000/svg"
   xmlns:svg="http://www.w3.org/2000/svg">
  <defs
     id="defs23" />
  <sodipodi:namedview
     id="namedview21"
     pagecolor="#ffffff"
     bordercolor="#000000"
     borderopacity="0.25"
     inkscape:showpageshadow="2"
     inkscape:pageopacity="0.0"
     inkscape:pagecheckerboard="0"
     inkscape:deskcolor="#d1d1d1"
     showgrid="false"
     inkscape:zoom="30.6"
     inkscape:cx="15"
     inkscape:cy="15"
     inkscape:window-width="1920"
     inkscape:window-height="1137"
     inkscape:window-x="-8"
     inkscape:window-y="-8"
     inkscape:window-maximized="1"
     inkscape:current-layer="svg19" />
  <path
     d="M 16 3 C 8.8324839 3 3 8.8324839 3 16 L 3 34 C 3 41.167516 8.8324839 47 16 47 L 34 47 C 41.167516 47 47 41.167516 47 34 L 47 16 C 47 8.8324839 41.167516 3 34 3 L 16 3 z M 16 5 L 34 5 C 40.086484 5 45 9.9135161 45 16 L 45 34 C 45 40.086484 40.086484 45 34 45 L 16 45 C 9.9135161 45 5 40.086484 5 34 L 5 16 C 5 9.9135161 9.9135161 5 16 5 z M 37 11 A 2 2 0 0 0 35 13 A 2 2 0 0 0 37 15 A 2 2 0 0 0 39 13 A 2 2 0 0 0 37 11 z M 25 14 C 18.936712 14 14 18.936712 14 25 C 14 31.063288 18.936712 36 25 36 C 31.063288 36 36 31.063288 36 25 C 36 18.936712 31.063288 14 25 14 z M 25 16 C 29.982407 16 34 20.017593 34 25 C 34 29.982407 29.982407 34 25 34 C 20.017593 34 16 29.982407 16 25 C 16 20.017593 20.017593 16 25 16 z"
     id="path17" />
  <path
     style="fill:#ffffff;stroke-width:0.0326797"
     d="M 8.8562092,26.941002 C 7.8694026,26.829707 6.7847804,26.433051 5.9673383,25.884516 4.3973874,24.831019 3.3975879,23.256217 3.0820633,21.339869 3.0264583,21.002151 3.0228758,20.61841 3.0228758,15 c 0,-5.6184098 0.00358,-6.0021507 0.059188,-6.3398693 C 3.3126508,7.259651 3.8995245,6.0516651 4.8153456,5.092446 5.9007788,3.9555775 7.2408356,3.2708923 8.7680137,3.0728802 c 0.5802,-0.075228 11.8837723,-0.075228 12.4639723,0 2.681981,0.3477426 4.88891,2.3010959 5.546608,4.9093038 0.208599,0.8272356 0.19853,0.4713052 0.19853,7.017816 0,5.561258 -0.0038,5.972131 -0.05869,6.323529 -0.296433,1.898077 -1.29934,3.486737 -2.875549,4.55503 -0.828625,0.56161 -1.903328,0.950681 -2.938653,1.063871 -0.385265,0.04212 -11.8737715,0.04078 -12.2480198,-0.0014 z m 6.7835398,-5.358588 c 3.048535,-0.300882 5.487273,-2.644961 5.910776,-5.681352 0.06559,-0.470263 0.06569,-1.329307 2.29e-4,-1.806801 C 21.174445,11.35009 19.08081,9.0982036 16.380413,8.5331065 14.219708,8.080948 12.021582,8.7025742 10.444382,10.211806 c -1.0945555,1.047386 -1.7926081,2.40579 -1.9951036,3.882455 -0.065291,0.476123 -0.065291,1.335355 0,1.811478 0.3404216,2.482468 2.0927386,4.58861 4.4649946,5.366558 0.915094,0.300093 1.803199,0.401145 2.725492,0.310117 z m 7.01314,-12.6570222 c 0.477892,-0.1965572 0.750964,-0.6075637 0.750964,-1.1302931 0,-0.3372494 -0.09031,-0.568952 -0.317342,-0.8141719 -0.654738,-0.7071958 -1.822226,-0.4132873 -2.059792,0.5185412 -0.158317,0.6209846 0.178901,1.2370163 0.798254,1.4582549 0.201701,0.072049 0.613206,0.055979 0.827916,-0.032331 z"
     id="path198"
     transform="scale(1.6666667)" />
  <path
     style="fill:#ffffff;stroke-width:0.0326797"
     d="M 8.8562092,26.941002 C 5.7458055,26.590201 3.2959999,24.05221 3.0396189,20.915033 c -0.04295,-0.52555 -0.04295,-11.3045163 0,-11.8300657 C 3.2049229,7.0622428 4.2571802,5.2685697 5.9477124,4.1278442 6.7671167,3.5749323 7.759818,3.2036017 8.7680137,3.0728802 c 0.5802,-0.075228 11.8837723,-0.075228 12.4639723,0 1.908711,0.2474812 3.58333,1.291532 4.663541,2.907512 0.519183,0.7766895 0.863308,1.6840745 1.022485,2.6960784 0.05544,0.3524758 0.05911,0.7462323 0.05911,6.3398694 0,5.602638 -0.0036,5.985836 -0.05919,6.323529 -0.275654,1.674188 -1.066862,3.078495 -2.326434,4.129159 -0.973757,0.812255 -2.207391,1.333475 -3.487274,1.473402 -0.385265,0.04212 -11.8737715,0.04078 -12.2480198,-0.0014 z M 16.111111,21.51831 c 2.844222,-0.490523 5.040736,-2.75885 5.439414,-5.617248 0.06578,-0.471614 0.06578,-1.33051 0,-1.802124 C 21.061404,10.59209 17.875504,8.0690562 14.374377,8.4158778 11.313524,8.7190859 8.8733866,11.059622 8.4494752,14.098938 c -0.065779,0.471614 -0.065779,1.33051 0,1.802124 0.4211777,3.019719 2.8192738,5.337259 5.8805898,5.683052 0.420653,0.04752 1.315739,0.01445 1.781046,-0.0658 z M 22.71884,8.898115 c 0.23675,-0.1090003 0.46468,-0.3364598 0.575891,-0.5747 0.06918,-0.1482068 0.0892,-0.2461232 0.09818,-0.4802777 0.01449,-0.3778857 -0.06005,-0.5936778 -0.293199,-0.8487762 -0.752634,-0.8235021 -2.105311,-0.3089212 -2.102315,0.7997565 8.21e-4,0.3035831 0.07678,0.5356409 0.244999,0.7484507 0.150642,0.1905755 0.274455,0.282617 0.518799,0.385668 0.257561,0.1086258 0.685525,0.095165 0.957648,-0.030121 z"
     id="path269"
     transform="scale(1.6666667)" />
  <path
     style="fill:#ffffff;stroke-width:0.0326797"
     d="M 8.8562092,26.941002 C 8.1790846,26.864634 7.4163448,26.645577 6.7923373,26.348264 4.6496672,25.327374 3.2325353,23.275633 3.0396189,20.915033 2.9950411,20.369561 2.995795,9.6352288 3.0404498,9.0853101 3.2700992,6.2571995 5.2601143,3.9039398 8.0020827,3.2180124 8.8061582,3.0168659 8.5906742,3.0228758 14.998675,3.0228758 c 5.154647,0 5.892639,0.00614 6.248327,0.052019 1.141682,0.1472494 2.253457,0.6071921 3.181103,1.3160253 0.107843,0.082405 0.341123,0.2899241 0.518401,0.461153 1.06708,1.0306702 1.669152,2.1714872 1.957981,3.7100182 0.06624,0.3528471 0.06772,0.4652592 0.0803,6.0947717 0.0086,3.858203 0.0014,5.886521 -0.02191,6.197356 -0.12018,1.598957 -0.738792,2.980052 -1.847512,4.124704 -1.077319,1.112234 -2.474584,1.79626 -4.01113,1.963634 -0.385584,0.042 -11.8747584,0.04054 -12.2480198,-0.0016 z m 7.1568628,-5.405294 c 1.968314,-0.323802 3.652432,-1.462781 4.668159,-3.157105 1.233359,-2.057352 1.233467,-4.696739 2.94e-4,-6.757206 C 18.896518,8.6389265 15.147602,7.5407765 12.043322,9.0910539 10.089483,10.066801 8.7301771,11.968226 8.4480853,14.120144 c -0.063201,0.482123 -0.063201,1.277589 0,1.759712 0.2809042,2.142858 1.6369257,4.047007 3.5715837,5.015278 0.681932,0.341299 1.407512,0.569092 2.081654,0.65353 0.161765,0.02026 0.338235,0.04295 0.392157,0.05042 0.203184,0.02815 1.221365,-0.01431 1.519608,-0.06338 z M 22.722885,8.8931938 c 0.236281,-0.1156016 0.450318,-0.3300203 0.567364,-0.5683758 0.08326,-0.1695572 0.0921,-0.2205039 0.0921,-0.5307004 0,-0.3146313 -0.008,-0.3588307 -0.09572,-0.5320454 C 23.168287,7.0285167 22.933118,6.8040703 22.68686,6.689651 22.528858,6.616239 22.454566,6.602711 22.205877,6.602068 c -0.263096,-6.797e-4 -0.317068,0.010113 -0.51172,0.1023344 -0.270773,0.1282862 -0.465158,0.3240124 -0.59541,0.5995196 -0.0858,0.1814755 -0.100503,0.2505019 -0.10095,0.4738562 -3.34e-4,0.1657817 0.02035,0.3212229 0.05652,0.4248366 0.11713,0.3355323 0.4327,0.6428729 0.771504,0.7513863 0.246731,0.079023 0.669885,0.050341 0.897062,-0.060807 z"
     id="path271"
     transform="scale(1.6666667)" />
  <path
     style="fill:#ffffff;stroke-width:0.0326797"
     d="M 8.8562092,26.941002 C 7.6936641,26.809886 6.4752801,26.312978 5.5621475,25.597546 4.0973826,24.449913 3.1893997,22.76508 3.0405129,20.918457 2.9941276,20.343145 2.9941276,9.6568549 3.0405129,9.0815431 3.1412671,7.8319026 3.5924331,6.6373863 4.3399647,5.6410884 4.5941922,5.3022583 5.1501723,4.7318214 5.488453,4.4627368 6.4407007,3.7052738 7.5622556,3.2284721 8.752998,3.074895 9.1086833,3.0290202 9.8465647,3.0228758 15,3.0228758 c 6.409585,0 6.216846,-0.00537 7.009804,0.1952448 0.907524,0.2295976 1.802505,0.6769868 2.533178,1.2663016 0.312813,0.2522952 0.8762,0.8356608 1.117053,1.1566662 0.526703,0.7019812 0.904394,1.4945583 1.122806,2.3561897 0.199423,0.7867206 0.187652,0.398249 0.2018,6.6595849 0.0087,3.843978 0.0016,5.886168 -0.02161,6.19281 -0.102228,1.353085 -0.544213,2.512624 -1.370229,3.594771 -0.224081,0.293565 -0.768931,0.843981 -1.083001,1.094064 -0.985804,0.784964 -2.157724,1.268122 -3.405575,1.404049 -0.385584,0.042 -11.8747584,0.04054 -12.2480198,-0.0016 z m 7.1301348,-5.403848 c 2.332574,-0.353574 4.295228,-1.923684 5.169035,-4.135193 0.286208,-0.724362 0.410212,-1.342465 0.435989,-2.173203 0.03597,-1.159081 -0.161391,-2.113172 -0.642187,-3.104575 C 20.301738,10.789156 19.256456,9.7388565 17.914634,9.0750712 15.857358,8.0573585 13.464243,8.1772288 11.498444,9.3964556 10.463642,10.03826 9.5870065,11.015537 9.0516225,12.124183 c -0.4509519,0.933809 -0.6529297,1.821672 -0.6529297,2.870178 0,1.04856 0.2071719,1.96396 0.6521262,2.881456 1.005061,2.072437 2.973863,3.44702 5.311926,3.708694 0.344682,0.03858 1.226332,0.01286 1.623599,-0.04736 z M 22.723546,8.8928703 C 22.934789,8.7895186 23.212054,8.5059931 23.31065,8.2925085 23.37013,8.1637154 23.38231,8.0787729 23.3821,7.7941176 23.381871,7.4963366 23.37124,7.4293824 23.30166,7.2875817 23.193276,7.0667065 22.93409,6.8141278 22.69608,6.6974386 c -0.172975,-0.084805 -0.230733,-0.096112 -0.490196,-0.095969 -0.261374,1.308e-4 -0.317766,0.011454 -0.506536,0.101584 -0.991519,0.4734102 -0.924238,1.8718971 0.107838,2.2414994 0.249681,0.089415 0.67726,0.065299 0.916362,-0.051683 z"
     id="path273"
     transform="scale(1.6666667)" />
  <path
     style="fill:#ffffff;stroke-width:0.0326797"
     d="M 14.313725,20.342791 C 12.51068,20.095552 10.947151,18.969334 10.162783,17.352848 9.2141756,15.397882 9.5272286,13.08669 10.9631,11.444305 11.719681,10.578909 12.770271,9.9721893 13.954248,9.7169052 14.250735,9.652978 14.392908,9.6429194 15,9.6429194 c 0.607092,0 0.749265,0.010059 1.045752,0.073986 1.184777,0.2554568 2.233994,0.8616296 2.992631,1.7289576 1.787213,2.043272 1.787213,5.065002 0,7.108274 -0.755132,0.863321 -1.81862,1.479331 -2.976291,1.723973 -0.37062,0.07832 -1.3773,0.115562 -1.748367,0.06468 z"
     id="path275"
     transform="scale(1.6666667)" />
  <path
     style="fill:#ffffff;stroke-width:0.0326797"
     d="m 14.313725,20.342791 c -2.34431,-0.321459 -4.195981,-2.091542 -4.6140143,-4.410713 -0.09469,-0.52532 -0.09469,-1.338836 0,-1.864156 C 10.094739,11.876376 11.739348,10.194473 13.954248,9.7169052 14.250735,9.652978 14.392908,9.6429194 15,9.6429194 c 0.607899,0 0.748871,0.01 1.045752,0.07418 2.217966,0.4794846 3.859266,2.1579296 4.254537,4.3508226 0.09469,0.52532 0.09469,1.338836 0,1.864156 -0.39392,2.185396 -2.048261,3.881753 -4.238197,4.345838 -0.370524,0.07852 -1.376604,0.115852 -1.748367,0.06487 z"
     id="path277"
     transform="scale(1.6666667)" />
  <path
     style="fill:#ffffff;stroke-width:0.0326797"
     d="M 14.313725,20.342791 C 13.019336,20.1653 11.803263,19.516693 10.9631,18.555695 9.1473368,16.478781 9.1753178,13.413769 11.028723,11.367382 11.770047,10.548869 12.805815,9.9645255 13.954248,9.7169052 14.250735,9.652978 14.392908,9.6429194 15,9.6429194 c 0.607899,0 0.748871,0.01 1.045752,0.07418 1.671754,0.3614036 3.021015,1.3902406 3.756759,2.8645996 0.642792,1.288093 0.753582,2.735056 0.312831,4.085674 -0.600376,1.839761 -2.13097,3.203179 -4.05325,3.610543 -0.370524,0.07852 -1.376604,0.115852 -1.748367,0.06487 z"
     id="path279"
     transform="scale(1.6666667)" />
  <path
     style="fill:#ffffff;stroke-width:0.0326797"
     d="M 8.872549,28.149745 C 7.149583,27.982128 5.5232556,27.238782 4.2454676,26.034842 3.2048031,25.054322 2.4006012,23.672903 2.0449515,22.254902 1.8324914,21.407808 1.8464052,21.91622 1.8464052,15 c 0,-6.9162203 -0.013914,-6.4078085 0.1985463,-7.254902 C 2.3130718,6.6760833 2.8491762,5.595251 3.541995,4.7269305 4.5755965,3.4315017 6.0664183,2.4734292 7.6913958,2.0603296 8.6541337,1.8155835 8.1944801,1.8300654 15,1.8300654 c 6.80552,0 6.345866,-0.014482 7.308604,0.2302642 1.564889,0.397824 3.029574,1.3178441 4.03689,2.535712 1.008962,1.2198577 1.626464,2.6525182 1.789873,4.1526705 0.04786,0.4393229 0.04786,12.0632529 0,12.5025759 -0.347675,3.191764 -2.702623,5.894898 -5.826763,6.688266 -0.958693,0.243458 -0.461475,0.227221 -7.145205,0.233327 -3.298203,0.003 -6.1290853,-0.0074 -6.29085,-0.02314 z m 12.598039,-1.215196 c 0.997486,-0.184131 1.852192,-0.523363 2.620868,-1.040219 1.685488,-1.13332 2.746199,-2.959916 2.900985,-4.995637 0.04553,-0.598755 0.04553,-11.1986306 0,-11.7973858 C 26.837492,7.0634425 25.778719,5.240183 24.091456,4.1056704 23.312105,3.5816359 22.45103,3.2417169 21.454248,3.0646031 21.148832,3.0103351 20.726549,3.0065359 15,3.0065359 c -5.7265493,0 -6.1488324,0.0038 -6.4542484,0.058067 C 6.8868376,3.3593683 5.5404408,4.1339825 4.4717105,5.4084967 4.0350376,5.929251 3.535322,6.8392804 3.3168729,7.5115654 3.1640205,7.9819742 3.0492649,8.5647542 3.0077275,9.0815431 c -0.046193,0.5747085 -0.046193,11.2622049 0,11.8369139 0.1016842,1.265109 0.5393052,2.435337 1.2842922,3.434284 0.905827,1.214616 2.1818006,2.073016 3.6328169,2.443944 0.2336601,0.05973 0.5571895,0.124805 0.7189542,0.144609 0.1617648,0.0198 0.3308824,0.04149 0.375817,0.04819 0.044935,0.0067 2.7949342,0.01 6.1111112,0.0073 5.594638,-0.0045 6.051798,-0.009 6.339869,-0.06221 z"
     id="path281"
     transform="scale(1.6666667)" />
  <path
     style="fill:#ffffff;stroke-width:0.0326797"
     d=""
     id="path283"
     transform="scale(1.6666667)" />
  <path
     style="fill:#ffffff;stroke-width:0.0326797"
     d="M 21.840659,8.92542 C 21.537513,8.826469 21.264298,8.5764953 21.122085,8.2679739 c -0.07502,-0.1627617 -0.09032,-0.2405009 -0.09,-0.4575164 6.9e-4,-0.4792789 0.235871,-0.8602496 0.659825,-1.068856 0.19936,-0.098095 0.244774,-0.1074957 0.513401,-0.1062702 0.251668,0.00115 0.321294,0.01422 0.476879,0.089535 0.236443,0.1144552 0.47672,0.3531205 0.582966,0.5790554 0.07352,0.1563362 0.08443,0.2222881 0.08382,0.5065359 -5.89e-4,0.2750205 -0.01273,0.3512172 -0.07661,0.4809266 -0.114195,0.2318585 -0.302871,0.426223 -0.533116,0.5491894 -0.180596,0.096451 -0.241489,0.1115192 -0.484344,0.1198555 -0.17155,0.00589 -0.329965,-0.0075 -0.414243,-0.035009 z"
     id="path285"
     transform="scale(1.6666667)" />
  <path
     style="fill:#000000;stroke-width:0.0326797"
     d="m 14.493464,21.566346 c -0.05392,-0.0074 -0.230392,-0.02981 -0.392157,-0.04971 C 13.71396,21.46898 13.029964,21.293179 12.645073,21.142355 10.972624,20.486985 9.6433863,19.198944 8.9399688,17.552082 8.5997205,16.755482 8.4625976,16.099906 8.4403427,15.163399 8.4226658,14.419535 8.468182,13.98372 8.6284755,13.36204 9.2019829,11.137756 10.96094,9.3200408 13.150688,8.6887634 13.848393,8.4876235 14.209517,8.4379225 14.98366,8.4364937 c 0.755064,-0.00139 1.054942,0.035368 1.712425,0.209923 2.187928,0.5808721 3.966525,2.3102703 4.612697,4.4851033 0.200233,0.673926 0.242997,1.002756 0.242997,1.86848 0,0.673402 -0.01019,0.837459 -0.0721,1.160131 -0.341961,1.782481 -1.346317,3.308571 -2.841418,4.317456 -0.738212,0.498139 -1.695608,0.872384 -2.625191,1.026181 -0.29673,0.04909 -1.313743,0.09097 -1.519608,0.06258 z m 1.566846,-1.253757 c 1.157544,-0.236333 2.255343,-0.864891 2.995889,-1.715332 1.469579,-1.687659 1.773477,-4.059286 0.774834,-6.046818 -0.747892,-1.48848 -2.128994,-2.532382 -3.794035,-2.8677106 -0.532155,-0.1071726 -1.541841,-0.1071726 -2.073996,0 -2.999035,0.6039866 -4.8983819,3.4936296 -4.2533205,6.4709506 0.4565645,2.107305 2.1480305,3.76603 4.2369805,4.154969 0.504263,0.09389 0.519308,0.09493 1.184057,0.08203 0.440512,-0.0085 0.692774,-0.02974 0.929591,-0.07809 z"
     id="path287"
     transform="scale(1.6666667)" />
  <path
     style="fill:#000000;stroke-width:0.0326797"
     d="M 21.710874,8.8412107 C 21.479566,8.7247726 21.285555,8.5289128 21.154062,8.2790919 21.073077,8.12523 21.062199,8.0696824 21.062149,7.8097585 c -5.2e-5,-0.266816 0.01006,-0.3153671 0.106468,-0.5111892 0.127513,-0.259002 0.301687,-0.4248797 0.585665,-0.557769 0.194078,-0.09082 0.231677,-0.097259 0.494228,-0.084633 0.235356,0.011317 0.313776,0.029796 0.456525,0.1075735 0.22156,0.1207182 0.447192,0.362885 0.552572,0.5930664 0.07512,0.1640765 0.08178,0.2118596 0.0693,0.4973224 -0.01635,0.3742476 -0.07907,0.5219423 -0.322228,0.758786 -0.244181,0.2378399 -0.413018,0.3066805 -0.782462,0.3190378 -0.292312,0.00978 -0.322199,0.00447 -0.511348,-0.090742 z"
     id="path358"
     transform="scale(1.6666667)" />
</svg>
